<svg version="1.1" id="Layer_1" xmlns="http://www.w3.org/2000/svg" xmlns:xlink="http://www.w3.org/1999/xlink" x="0px" y="0px"
	 width="100%" viewBox="0 0 400 304" enable-background="new 0 0 400 304" xml:space="preserve">
<path fill="#000000" opacity="1.000000" stroke="none" 
	d="
M77.584427,191.535736 
	C75.564720,190.768997 74.653023,188.083191 72.115433,189.486008 
	C69.696480,190.823242 69.229492,192.873230 69.323944,195.381287 
	C69.436729,198.375946 69.072983,201.408051 69.398689,204.370819 
	C69.946274,209.351990 67.776031,210.600891 63.106323,210.440216 
	C49.813206,209.982834 51.757973,212.094391 51.734066,199.040634 
	C51.726395,194.851547 51.080029,191.759506 47.440605,188.750244 
	C39.447220,182.140915 40.103622,169.665771 48.531170,162.377106 
	C51.013111,160.230576 51.706406,158.075760 51.692291,155.071274 
	C51.615589,138.743332 51.764332,122.413712 51.591633,106.087242 
	C51.548756,102.033661 52.757301,100.576530 56.957115,100.577026 
	C69.349388,100.578484 69.349358,100.415337 69.349754,112.978874 
	C69.350204,127.474434 69.347466,141.969986 69.354881,156.465546 
	C69.355980,158.616516 68.981964,161.068405 71.466888,162.133286 
	C74.271133,163.334991 75.103500,160.606018 76.497192,159.145767 
	C86.040253,149.147018 95.624290,139.186066 105.052406,129.079788 
	C107.571182,126.379837 109.364014,126.457970 112.033699,128.954056 
	C121.345848,137.660660 121.450851,137.600021 112.713570,146.862473 
	C104.830276,155.219589 96.876160,163.509872 88.971832,171.847198 
	C88.076591,172.791489 87.301506,173.849655 86.170204,175.218674 
	C95.123528,183.822998 104.053040,191.978729 116.858246,193.529037 
	C120.361504,193.953171 121.499962,195.373291 121.332642,198.593231 
	C121.220383,200.753586 121.315575,202.924194 121.297783,205.090057 
	C121.245956,211.401093 120.700485,211.844604 114.297821,211.034225 
	C99.719612,209.189072 88.350281,201.299637 77.584427,191.535736 
z"/>
<path fill="#000000" opacity="1.000000" stroke="none" 
	d="
M249.881195,212.297729 
	C219.908340,212.178482 200.734909,185.672836 210.232437,158.141953 
	C219.765091,130.509262 256.920685,122.415512 276.904938,143.774765 
	C288.706299,156.388092 291.794891,171.263412 285.309418,187.236237 
	C279.067993,202.607834 266.942596,210.828232 249.881195,212.297729 
M241.627380,194.086075 
	C244.030212,194.972031 246.544006,194.825867 249.022278,194.776474 
	C259.113220,194.575378 267.956512,187.467178 270.363739,177.703659 
	C272.867615,167.548096 268.401642,157.046249 259.475922,152.100601 
	C247.687576,145.568787 232.750504,150.227921 227.259521,162.164291 
	C221.360535,174.987564 228.763840,190.477142 241.627380,194.086075 
z"/>
<path fill="#000000" opacity="1.000000" stroke="none" 
	d="
M175.825546,155.302612 
	C170.855713,149.749390 165.031631,148.063110 159.047745,150.217453 
	C152.576813,152.547150 149.395981,156.876907 149.301178,164.335236 
	C149.131714,177.666397 149.082626,191.001953 149.236618,204.332748 
	C149.287308,208.720215 148.061081,210.941788 143.288010,210.409042 
	C140.654053,210.115067 137.947952,210.189102 135.296906,210.391830 
	C131.318680,210.696045 129.615829,209.303787 129.641388,205.054352 
	C129.775635,182.722046 129.754593,160.388046 129.619888,138.055649 
	C129.597885,134.409546 130.768372,132.802444 134.466568,133.046036 
	C136.789490,133.199066 139.145584,133.229507 141.461533,133.026535 
	C146.132507,132.617126 149.020340,134.022064 148.143524,140.483963 
	C154.307297,134.530045 160.704437,131.647095 168.350739,131.636703 
	C185.799103,131.612976 197.823776,142.791443 198.226425,160.274185 
	C198.575516,175.432678 198.233795,190.606033 198.351700,205.771622 
	C198.378708,209.247025 197.069992,210.329254 193.655457,210.422592 
	C178.706345,210.831238 178.709091,210.923126 178.704041,196.045425 
	C178.700592,185.878830 178.645782,175.711853 178.719757,165.545822 
	C178.745972,161.942917 178.152969,158.589432 175.825546,155.302612 
z"/>
<path fill="#000000" opacity="1.000000" stroke="none" 
	d="
M326.491760,131.752136 
	C327.603882,131.791519 328.270233,131.812592 328.936707,131.818207 
	C341.741425,131.925858 343.758240,134.510635 341.322083,147.277771 
	C340.855865,149.721161 339.370148,150.120865 337.421814,150.145126 
	C333.922943,150.188705 330.422577,150.224594 326.924286,150.170059 
	C324.400574,150.130737 323.327576,151.247284 323.342529,153.783035 
	C323.403412,164.114319 323.137177,174.454071 323.474854,184.774872 
	C323.692841,191.436234 328.122040,195.170654 335.779663,194.844131 
	C340.847015,194.628067 342.451324,196.418015 341.907562,201.053406 
	C341.869019,201.381821 341.907654,201.719315 341.910370,202.052582 
	C341.997314,212.726501 340.282745,214.222809 329.426971,212.946838 
	C310.880066,210.766861 303.527344,201.857330 303.124695,180.812759 
	C302.962158,172.317017 302.961182,163.813431 303.129517,155.318237 
	C303.207306,151.394653 301.666046,150.109192 297.812378,150.123840 
	C289.701172,150.154709 289.700470,149.983078 289.683594,141.902954 
	C289.682190,141.236389 289.681854,140.569824 289.682007,139.903259 
	C289.683838,131.950760 289.690308,131.696838 297.486206,131.894638 
	C302.051910,132.010452 303.107544,130.112473 303.145538,125.984116 
	C303.258636,113.692146 303.389191,113.693344 315.662872,113.701309 
	C323.336914,113.706284 323.336121,113.706284 323.348419,121.295059 
	C323.352203,123.627998 323.381958,125.961105 323.361511,128.293793 
	C323.345032,130.172668 323.851074,131.598312 326.491760,131.752136 
z"/>
</svg>